<?xml version="1.0" encoding="UTF-8"?>
<!DOCTYPE svg PUBLIC "-//W3C//DTD SVG 1.1//EN" "http://www.w3.org/Graphics/SVG/1.1/DTD/svg11.dtd">
<!-- Creator: CorelDRAW -->
<svg xmlns="http://www.w3.org/2000/svg" xml:space="preserve" width="77.248mm" height="76.8958mm" version="1.1" style="shape-rendering:geometricPrecision; text-rendering:geometricPrecision; image-rendering:optimizeQuality; fill-rule:evenodd; clip-rule:evenodd"
viewBox="0 0 6522.1 6492.37"
 xmlns:xlink="http://www.w3.org/1999/xlink"
 xmlns:xodm="http://www.corel.com/coreldraw/odm/2003">
 <defs>
  <style type="text/css">
   <![CDATA[
    .fil0 {fill:#6DBB41}
    .fil1 {fill:#AED59B}
   ]]>
  </style>
 </defs>
 <g id="Layer_x0020_1">
  <metadata id="CorelCorpID_0Corel-Layer"/>
  <g id="_1999608272144">
   <path class="fil0" d="M446.72 3335.53c-41.51,-179.37 110.51,-910.02 227.85,-1171.82 288.08,-642.76 718.79,-1120.94 1360.08,-1439.43 1000.56,-496.93 2401.85,-304.25 3154.71,490.02 196.51,207.31 321.25,318.81 468.07,573.55l94.19 177.71c3.26,6.17 7.38,13.69 10.56,19.87 497.8,966.49 372.22,2170.62 -305.26,2994.99 -59.42,72.31 -97.04,128.42 -162.68,194.71l-262.22 241.29c-43.77,33.3 -52.9,44.68 -100.93,80.83 -71.43,53.75 -137.75,97.34 -216.21,140.87 -86.36,47.91 -144.17,87.08 -230.08,127.13l-642.46 217.61c-645.97,119.51 -1340.72,51.81 -1886.55,-255.22l-167.56 -95.86c-394.88,-230.61 -869.95,-732.59 -1048.45,-1155.38 -78.59,-186.15 -141.56,-317.76 -192.21,-522.33l-69.95 -469.76c-5.72,-130.64 -18.25,-94.09 -30.9,-148.78zm-446.72 -119.12c0,402.5 80.6,917.05 252.21,1271.05 150.64,310.74 148.4,321.76 341.79,611.37l385.11 447.97c702.82,676.61 1395.61,945.56 2445.76,945.56 833.99,0 1595.59,-422.21 2166.62,-990.25 1056.27,-1050.72 1243.32,-2713.48 406.89,-3990.93 -214.23,-327.19 -313.04,-445.39 -599.86,-711.38 -4.31,-4 -10.71,-10.05 -15.1,-14.04 -4.46,-4.05 -10.9,-10.06 -15.46,-14.11 -477.95,-424.73 -1267.81,-771.66 -1913.29,-771.66 -650.67,0 -1016.12,38.31 -1598.5,307.51 -373.05,172.45 -631.02,386.47 -925.49,687.13l-29.79 29.77c-237.54,231.6 -208.6,214.39 -390.56,494.07 -216.21,332.35 -307.86,564.39 -405.04,934.83 -65.09,248.11 -105.29,460.66 -105.29,763.09z"/>
   <path class="fil0" d="M2804.15 1637.98l-14.19 1342.68 -466.99 15.28c-23.53,8.99 -28.47,-10.11 -59.57,71.55l770.62 811.57c4.01,4.2 9.9,10.71 13.86,14.92 24.6,26.03 31.28,34.67 56.29,59.9l142.01 126.18c145.01,-76.72 657.81,-643.34 811.56,-796.65 53.79,-53.65 189.56,-153.32 194.45,-224.09 9.87,-142.81 11.82,-57.54 -53,-78.26l-473.75 -14.23 -18.73 -1328.86c1.74,-64.4 14.26,-39.38 -13.81,-89.34 -223.02,-51.96 -640.64,-51.96 -863.66,0 -23.96,42.64 -15.58,30.59 -25.1,89.34z"/>
   <path class="fil0" d="M1459.29 4080.06c-44.05,189.09 -125.98,804.1 208.48,804.1l3186.62 0c305.23,0 238.25,-336.73 238.25,-655.19 0,-80.44 -14.22,-82.12 -29.78,-148.91 -496.11,-115.58 -416.94,56.04 -416.94,357.38l-2769.68 0c0,-396.79 33.44,-387.16 -268.03,-387.16 -46.92,0 -112.86,15.79 -148.91,29.78z"/>
   <path class="fil1" d="M2322.96 2995.95l466.99 -15.28 14.19 -1342.68c-73.66,100.3 -34.46,1189.84 -34.46,1310.39 -209.23,0 -367.95,-32.28 -446.72,47.58z"/>
   <path class="fil1" d="M4199.19 2981.07c-37.64,-26.22 26.86,-21.04 -88.06,-34.11 -19.89,-2.27 -94.94,0.62 -119.94,0.89 -79.57,0.86 -159.14,0.52 -238.72,0.52l-3.09 -1248.81c-26.72,-88.11 16.18,-1.22 -42.66,-61.58l18.73 1328.86 473.75 14.23z"/>
  </g>
 </g>
</svg>
