<?xml version="1.0" encoding="UTF-8"?>
<!DOCTYPE svg PUBLIC "-//W3C//DTD SVG 1.1//EN" "http://www.w3.org/Graphics/SVG/1.1/DTD/svg11.dtd">
<!-- Creator: CorelDRAW -->
<svg xmlns="http://www.w3.org/2000/svg" xml:space="preserve" width="86.0583mm" height="76.7932mm" version="1.1" style="shape-rendering:geometricPrecision; text-rendering:geometricPrecision; image-rendering:optimizeQuality; fill-rule:evenodd; clip-rule:evenodd"
viewBox="0 0 6593.07 5883.25"
 xmlns:xlink="http://www.w3.org/1999/xlink"
 xmlns:xodm="http://www.corel.com/coreldraw/odm/2003">
 <defs>
  <style type="text/css">
   <![CDATA[
    .fil0 {fill:#F17128}
   ]]>
  </style>
 </defs>
 <g id="Layer_x0020_1">
  <metadata id="CorelCorpID_0Corel-Layer"/>
  <g id="_1999599415504">
   <path class="fil0" d="M2432.11 2945.48c0,-793.28 945.84,-1132.01 1467.04,-629.3 323.18,311.71 358.83,835.3 55.42,1178.82 -512.06,579.72 -1522.46,252.37 -1522.46,-549.51zm459.4 -1459.27c-126.33,2.82 -79.22,6.8 -174.67,45.71 -67.25,27.41 -115.13,48.06 -176.63,62.38 -77.78,-52.07 -304.31,-245.75 -397.03,-230.4 -73.86,12.22 -283.85,241.64 -341.25,304.26 -219.98,240.01 254.76,352.97 132.39,610.34 -47.6,100.11 -71.02,151.29 -96.72,261.62 -583.56,0 -486.42,180.73 -486.42,567.49 0,203.49 195.89,175.52 486.42,243.21 11.86,142.5 91.6,229.08 114.6,298.07 13.31,39.91 12.63,9.57 8.92,52.57 -5.17,59.9 -143.53,204.12 -189.47,289.07 -79.19,146.45 12.41,186.89 113.1,285.97 113.09,111.29 145.16,147.95 277.13,236.32 234.89,-124.29 189.04,-116.46 378.33,-243.21 129.14,33.54 205.13,104.84 351.3,108.1 52.6,632.11 176.47,486.41 702.61,486.41 28.61,-122.8 103.06,-260.36 108.09,-486.41 169.33,-3.78 218.69,-77.2 351.3,-108.1 118.2,79.16 256.43,208.52 405.35,243.21 5.58,-3.87 13.96,-17.05 16.32,-12.18 2.75,5.68 379.14,-343.81 389.03,-420.19 7.45,-57.47 -203.47,-318.98 -243.21,-378.33 26.78,-114.95 100.15,-201.18 135.12,-351.3 536.56,-150.56 486.42,99.12 486.42,-648.56 0,-117.83 -383.96,-159.86 -486.42,-162.14 -2.48,-104.02 -100.51,-285.9 -135.12,-351.3 36.7,-109.11 243.21,-328.21 243.21,-405.35 0,-101.02 -329.9,-369.51 -432.37,-432.37 -76,40.21 -120.01,61.42 -189.59,107.66 -67.07,44.56 -126.02,93.54 -188.74,135.54 -32.67,-17.28 -29.95,-16.09 -73.2,-33.29 -5.54,-2.21 -13.26,-4.75 -19.08,-7l-259.02 -94.82c-0.02,-187.74 -31.56,-486.42 -243.21,-486.42 -385.89,0 -514.76,-120.26 -567.49,513.44z"/>
   <path class="fil0" d="M-0 3134.64c168.02,112.51 206.01,87.9 351.3,54.05 3.39,152.37 70.31,461.73 110.92,591.69 61.83,197.85 114.6,317.29 204.25,498.36 817.76,1651.48 3214.26,2249.42 4745.12,727.42 66.65,-66.26 79.91,-81 139.74,-157.51 225.77,-288.75 465.18,-594.67 555.97,-984.38 -61.71,-29.61 -296.66,-101.3 -378.33,-108.09 -34.39,64.99 -51.28,121.04 -81.42,188.81 -87.59,196.98 -179.48,355.02 -315.36,522.37 -180.04,221.75 -334.51,369.87 -564.27,543.7 -291.82,220.78 -820.51,432.48 -1200.95,447.5 -122.5,4.83 -158.21,23.37 -244.64,25.84 -334.2,9.56 -839.75,-120.6 -1133.55,-268.84 -594.81,-300.13 -1114.44,-818.21 -1307.06,-1476.36 -64.78,-221.32 -98.06,-322.02 -98.06,-550.51 266.39,0 209.65,22.72 324.28,-54.05 -7.92,-95.15 -48.39,-125.43 -104.16,-193.1l-270.35 -351.19c-202.22,-257.89 -152.12,-228.1 -469.43,159.74 -77.55,94.78 -237,268.58 -264.02,384.54z"/>
   <path class="fil0" d="M513.44 2026.68c127.97,29.81 239.86,75.83 378.33,108.09 59.05,-253.46 249.29,-565.44 401.09,-756.92 175.12,-220.89 360.94,-378.1 616.15,-551.41 985.44,-669.21 2357.05,-492.66 3219.56,341.57 189.65,183.42 351.34,457.11 476.06,687.31l20.13 35.79c2.95,5.61 6.76,12.36 9.6,18.01 69.93,139.43 153.87,479.9 176.88,634.57 21.35,143.51 41.19,149.61 -79.99,158.69 -104.79,7.85 -375,-56.7 -104.29,264.06 116.53,138.07 289.07,418.68 399.28,492.48 140.5,-37.52 404.37,-423.29 504.43,-551.21 196.64,-251.4 -119.33,-205.45 -288.24,-205.45 0,-725.27 -444.09,-1428.83 -911.65,-1898.8l-327.1 -264c-18.13,-14.03 -43.18,-34.41 -63.25,-48.07 -130.55,-88.87 -309.68,-182.81 -454.83,-247.97 -973.53,-437.01 -2180.2,-268.22 -2984.29,366.77 -46.9,37.04 -32.94,24.92 -75.44,63.13 -29.93,26.91 -49.29,48.06 -82.79,75.35 -258.63,210.74 -112.46,92 -294.44,298.34 -5.07,5.75 -19.9,21.38 -25.11,27.06 -189.1,206.13 -504.66,709.11 -510.09,952.6z"/>
  </g>
 </g>
</svg>
