<?xml version="1.0" encoding="UTF-8"?>
<!DOCTYPE svg PUBLIC "-//W3C//DTD SVG 1.1//EN" "http://www.w3.org/Graphics/SVG/1.1/DTD/svg11.dtd">
<!-- Creator: CorelDRAW -->
<svg xmlns="http://www.w3.org/2000/svg" xml:space="preserve" width="77.2486mm" height="77.2043mm" version="1.1" style="shape-rendering:geometricPrecision; text-rendering:geometricPrecision; image-rendering:optimizeQuality; fill-rule:evenodd; clip-rule:evenodd"
viewBox="0 0 6316.71 6313.09"
 xmlns:xlink="http://www.w3.org/1999/xlink"
 xmlns:xodm="http://www.corel.com/coreldraw/odm/2003">
 <defs>
  <style type="text/css">
   <![CDATA[
    .fil0 {fill:#059EE1}
    .fil1 {fill:#8CCDE5}
   ]]>
  </style>
 </defs>
 <g id="Layer_x0020_1">
  <metadata id="CorelCorpID_0Corel-Layer"/>
  <path class="fil0" d="M3259.31 5855.22c-945.78,0 -1524.17,-263.12 -2156.62,-925.99 -134.57,-141.04 -169.94,-226.84 -266.48,-371.91 -655.09,-984.28 -473.99,-2589.98 539.35,-3441.36 406.54,-341.57 976.68,-654.47 1537.63,-654.47 1007.39,0 1319.53,93.89 2076.69,692.02l449.58 531.36c191.47,313.76 314.93,574.55 379.17,947.63 109.21,634.23 34.19,1174.59 -229.24,1742.78 -2.14,4.61 -26.49,55.24 -27.54,57.2l-171.88 265.24c-114.54,152.41 -172.83,220.7 -306.47,357.09l-422.01 360.24c-387.49,246.81 -862.87,440.16 -1402.17,440.16zm-282.53 -5855.22l407.23 0c375.07,24.9 744.91,119.21 1087.15,288.01l496.06 282.52c270.82,180.44 589.45,508.64 778.77,781.64 119.25,171.96 187.48,301.43 282.76,493.33 183.94,370.44 279.44,802.57 287.95,1239.14l0 127.33c-8.72,455.26 -111.72,909.32 -307.45,1297.43 -198.31,393.25 -346.73,612.81 -651.53,906.81 -1284.13,1238.61 -3294.11,1161.76 -4424.85,-29.69 -3.85,-4.06 -9.56,-10.38 -13.46,-14.42l-186.4 -192.33c-263.46,-338.06 -380.52,-533.03 -535.63,-930.79l-111.42 -354.55c-60.97,-235.24 -85.97,-468.78 -85.97,-750.5 0,-292.05 38.42,-570.05 118.48,-811.46 0.28,-0.83 19.76,-62.08 20.66,-65.05 20.65,-68.58 22.42,-81.57 44.49,-151.02 35.88,-112.9 59.61,-180.84 104.32,-270.9l288.59 -487.5c556.72,-820.19 1469.8,-1296.85 2400.25,-1357.99z"/>
  <path class="fil0" d="M1701.77 4168.87c260.87,50.21 531.68,9.55 795.93,23.56l0.64 -298.57c-112.12,-31.5 -210.7,14.86 -297.97,-57.68 -323.84,-233.03 14.11,-497.73 272.67,-757.14 90.97,-91.26 539.84,-596.17 654.37,-616.31 140.16,-24.65 194.4,92.69 355.43,255.45 88.17,89.11 738.62,731.09 757.18,833.33 23.55,129.73 -20.4,202.78 -95.09,247.29 -220.9,131.68 -396.5,-136.24 -371.81,270.08 12.11,199.26 43.58,141.27 495.74,142.29 277.33,0.63 350.98,11.26 542.72,-91.67 783,-420.31 603.91,-1492.1 -207.95,-1684.59 -102.88,-24.4 -225.38,-12.06 -334.81,-12.06 -26.39,-317.12 -278.34,-576.18 -497.76,-738.23l-107.1 -70.4c-675.76,-365.16 -1372.06,-63.23 -1680.2,427.23 -165.68,263.7 -81.26,376.87 -262.97,433.75 -81.24,25.43 -114.2,15.98 -201.97,53.15 -523.88,221.9 -644.86,880.93 -389.69,1274.69 98.02,151.25 355.06,390.33 572.63,365.83z"/>
  <path class="fil0" d="M2336.32 3663.11l346.12 0 0 1096.05c0,280.03 314.46,201.9 778.77,201.9 93.78,0 173.06,-48.11 173.06,-144.21l0 -1153.74c572.59,0 547.34,26.94 137.01,-392.32l-598.5 -617.19c-129.82,34.66 -547.43,534.46 -757.58,742.29 -45.21,44.7 -275.27,267.23 -78.88,267.23z"/>
  <path class="fil1" d="M1701.77 4168.87c40.92,71.8 16.79,43.49 288.42,42.28 329.86,-1.46 525.72,54.29 549.48,-85.34 18.67,-109.7 -12.84,-214.74 -30.29,-289.63l-309.01 0c87.27,72.54 185.84,26.18 297.97,57.68l-0.64 298.57c-264.25,-14.01 -535.05,26.65 -795.93,-23.56z"/>
 </g>
</svg>
